# xmcd
# 
# Track frame offsets:
#     150
#     29922
#     63390
#     84700
#     123750
#     148617
#     204957
# 
# Disc length: 3396
# 
# Revision: 3
# Processed by: cddbd v1.5.2PL0 Copyright (c) Steve Scherf et al.
# Submitted via: fre:ac v1.0.17
# 
DISCID=610d4207
DTITLE=Eumir Deodato                              by Niv@s - Live At Felt Forum
DYEAR=1973
DGENRE=Jazz
TTITLE0=Do It Again
TTITLE1=September 13
TTITLE2=Baubles, Bangles And Beads
TTITLE3=Whirlwinds
TTITLE4=Spirit Of Summer
TTITLE5=Skyscraper
TTITLE6=Also Sprach Zarathustra
EXTD=
EXTT0=
EXTT1=
EXTT2=
EXTT3=
EXTT4=
EXTT5=
EXTT6=
PLAYORDER=
